:SAMPLES-PER-SECOND 30
:FULLY-SPECIFIED
:DEGREES
489
root  -68.7557 34.8265 -57.1664 -169.337 26.6024 -178.27
RightUpLeg  -20.1795 -29.6427 4.52383
RightLeg  24.0104 -16.6034 -6.03934
RightFoot  -7.09484 0.116455 2.53072
RightToes  -0.537086 -0.00136028 -0.00507555
Spine  -1.05278 -0.805506 0.546481
Spine1  -2.17856 -1.49618 1.75902
HEad  -66.5751 -16.9672 13.2228
LeftShoulder1  -1.94126e-019 -3.10601e-018 -2.51263e-017
LeftArm  -16.3526 22.0266 -81.0254
LeftForeArm  33.8487 -7.43289 -1.29317
LeftHand  -0.459358 -0.787973 8.7572
RightShoulder  -4.96962e-017 0 -2.36833e-017
RightArm  -22.9403 -20.1308 77.4071
RightForeArm  50.3691 20.6456 1.89615
RightHand  -0.420115 -0.0204964 -9.1261
LeftUpLeg  -8.37825 15.7372 0.751981
LeftLeg  14.5531 20.1291 3.77932
LeftFoot  -0.96706 -0.00314511 -0.211122
LeftToes  -13.7973 1.31378e-006 1.14341e-007
490
root  -68.4054 34.7604 -57.1984 -169.022 32.5562 -177.74
RightUpLeg  -21.6198 -34.2966 6.57739
RightLeg  25.4038 -19.3581 -7.51706
RightFoot  -5.12822 0.0694973 2.22899
RightToes  -2.15581 -0.00574699 -0.0202925
Spine  -1.13856 -0.798374 0.631582
Spine1  -2.34458 -1.48973 1.94153
HEad  -66.0738 -18.7838 13.0972
LeftShoulder1  -1.94126e-019 -3.10601e-018 -2.51263e-017
LeftArm  -17.2443 23.16 -80.7528
LeftForeArm  33.2642 -7.48653 -1.30242
LeftHand  -0.471732 -0.501856 9.40214
RightShoulder  -4.96962e-017 0 -2.36833e-017
RightArm  -22.0865 -20.4712 77.36
RightForeArm  50.6326 20.6379 1.88383
RightHand  -0.436764 0.170648 -9.1778
LeftUpLeg  -7.60239 19.2061 1.19306
LeftLeg  15.5348 22.2121 4.53432
LeftFoot  -1.15382 -0.00496379 -0.331398
LeftToes  -15.5145 1.31378e-006 1.14341e-007
491
root  -67.9519 34.6374 -57.198 -168.58 38.6147 -177.016
RightUpLeg  -21.8701 -34.9941 8.02925
RightLeg  24.9741 -17.7314 -6.76479
RightFoot  -2.92482 0.0152155 1.27333
RightToes  -7.69245 -0.0239633 -0.0712843
Spine  -1.19991 -0.837279 0.710921
Spine1  -2.46357 -1.57397 2.10469
HEad  -65.6312 -20.3028 13.3418
LeftShoulder1  -1.94126e-019 -3.10601e-018 -2.51263e-017
LeftArm  -17.4999 24.7323 -80.0975
LeftForeArm  31.729 -8.61494 -1.50507
LeftHand  -0.466158 -0.269474 9.65332
RightShoulder  -4.96962e-017 0 -2.36833e-017
RightArm  -21.7776 -20.6025 77.3496
RightForeArm  50.9515 20.1157 1.77476
RightHand  -0.437632 0.0780714 -9.34298
LeftUpLeg  -7.43865 22.7255 1.94484
LeftLeg  18.4236 24.171 6.14685
LeftFoot  -1.71214 -0.0120715 -0.646283
LeftToes  -17.2599 1.31378e-006 1.14341e-007
492
root  -67.3982 34.4517 -57.1064 -167.096 44.3674 -175.169
RightUpLeg  -20.6141 -31.8825 9.25433
RightLeg  22.9744 -15.0297 -5.18399
RightFoot  -3.14978 0.01336 1.13981
RightToes  -9.40723 -0.0305949 -0.0866943
Spine  -1.28766 -0.930044 0.985737
Spine1  -2.64348 -1.75449 2.64199
HEad  -65.4354 -21.4755 13.921
LeftShoulder1  -1.94126e-019 -3.10601e-018 -2.51263e-017
LeftArm  -16.809 26.594 -79.1658
LeftForeArm  30.264 -11.0415 -1.94569
LeftHand  -0.454107 -0.121057 9.64576
RightShoulder  -4.96962e-017 0 -2.36833e-017
RightArm  -22.0827 -20.5818 77.2289
RightForeArm  51.1591 19.1119 1.58328
RightHand  -0.425921 -0.254059 -9.64977
LeftUpLeg  -8.58548 26.3678 3.61049
LeftLeg  24.0911 25.4415 9.07827
LeftFoot  -2.6461 -0.0314464 -1.19991
LeftToes  -19.5195 1.31378e-006 1.14341e-007
493
root  -66.8468 34.2617 -56.9721 -165.268 50.0653 -172.603
RightUpLeg  -19.2576 -28.6067 10.4035
RightLeg  22.0281 -12.4569 -4.09006
RightFoot  -4.08737 0.0191278 1.16544
RightToes  -9.92049 -0.0321515 -0.0912674
Spine  -1.151 -0.872586 1.28828
Spine1  -2.38207 -1.63284 3.18575
HEad  -65.44 -22.4799 14.6225
LeftShoulder1  -1.94126e-019 -3.10601e-018 -2.51263e-017
LeftArm  -16.0838 27.553 -78.2727
LeftForeArm  30.2847 -12.8497 -2.2763
LeftHand  -0.477278 -0.346952 9.75505
RightShoulder  -4.96962e-017 0 -2.36833e-017
RightArm  -22.6817 -20.0989 76.9787
RightForeArm  51.6483 17.395 1.25458
RightHand  -0.418483 -0.861676 -10.6895
LeftUpLeg  -10.1551 28.3518 5.65987
LeftLeg  32.1694 26.9196 13.7994
LeftFoot  -1.61881 -0.0136101 -0.801736
LeftToes  -25.4562 1.31378e-006 1.14341e-007
494
root  -66.3974 34.1828 -56.8405 -163.518 56.1119 -170.174
RightUpLeg  -18.0873 -24.4471 10.8613
RightLeg  21.777 -10.809 -3.50612
RightFoot  -4.61416 0.0200811 1.1139
RightToes  -8.64644 -0.0314203 -0.0798819
Spine  -0.906234 -0.704414 1.5171
Spine1  -1.90175 -1.29597 3.56916
HEad  -64.8495 -22.9531 14.6155
LeftShoulder1  -1.94126e-019 -3.10601e-018 -2.51263e-017
LeftArm  -16.7106 27.2826 -78.1012
LeftForeArm  31.5365 -12.2635 -2.16857
LeftHand  -0.49886 -0.239686 10.3773
RightShoulder  -4.96962e-017 0 -2.36833e-017
RightArm  -24.724 -18.8713 76.3399
RightForeArm  52.984 14.9145 1.19679
RightHand  -0.393249 -1.45558 -11.4903
LeftUpLeg  -12.2783 27.8682 6.8265
LeftLeg  41.943 28.1089 20.3779
LeftFoot  2.73448 -0.0436454 1.99015
LeftToes  -31.9005 1.31378e-006 1.14341e-007
495
root  -66.0796 34.1928 -56.7577 -161.757 62.1299 -168.134
RightUpLeg  -16.8236 -21.3737 10.7151
RightLeg  20.59 -8.20551 -2.4845
RightFoot  -4.47225 0.00924733 0.8348
RightToes  -8.05944 -0.0297426 -0.0745989
Spine  -0.718712 -0.520792 1.53508
Spine1  -1.52994 -0.936622 3.56112
HEad  -64.0336 -22.8673 14.3449
LeftShoulder1  -1.94126e-019 -3.10601e-018 -2.51263e-017
LeftArm  -17.441 26.8948 -78.1088
LeftForeArm  32.2268 -12.2269 -2.16193
LeftHand  -0.513278 0.0791597 11.2873
RightShoulder  -4.96962e-017 0 -2.36833e-017
RightArm  -28.6545 -17.5754 75.6263
RightForeArm  56.1782 12.5047 1.43985
RightHand  -0.326974 -2.26829 -11.9032
LeftUpLeg  -14.9414 25.7397 6.81173
LeftLeg  50.2801 25.5895 24.5393
LeftFoot  4.94736 -0.147681 3.57911
LeftToes  -18.8628 1.31378e-006 1.14341e-007
496
root  -65.8506 34.2312 -56.7442 -159.322 67.6798 -165.636
RightUpLeg  -15.7935 -18.0257 10.3505
RightLeg  19.4109 -6.3034 -1.77157
RightFoot  -3.91821 0.000193569 0.5923
RightToes  -8.48883 -0.0284599 -0.0784657
Spine  -0.518094 -0.392503 1.54047
Spine1  -1.12943 -0.683068 3.5364
HEad  -63.6344 -22.4413 14.1024
LeftShoulder1  -1.94126e-019 -3.10601e-018 -2.51263e-017
LeftArm  -18.0698 26.4082 -78.4022
LeftForeArm  32.0357 -12.8854 -2.285
LeftHand  -0.503729 0.358998 11.669
RightShoulder  -4.96962e-017 0 -2.36833e-017
RightArm  -31.5974 -16.5317 74.8414
RightForeArm  58.5022 11.093 1.53241
RightHand  -0.230655 -3.34329 -12.4808
LeftUpLeg  -17.2605 22.1235 6.62186
LeftLeg  52.7492 16.2451 17.8694
LeftFoot  3.94044 -0.0593235 1.88597
LeftToes  -18.9504 1.31378e-006 1.14341e-007
497
root  -65.6791 34.2995 -56.8106 -155.419 73.3295 -161.925
RightUpLeg  -14.9822 -13.0131 9.65936
RightLeg  18.2053 -5.73837 -1.48383
RightFoot  -3.17177 -0.00325438 0.467932
RightToes  -8.98359 -0.0289137 -0.0829057
Spine  -0.312442 -0.279844 1.52953
Spine1  -0.712139 -0.447123 3.49691
HEad  -63.2565 -21.1441 13.4749
LeftShoulder1  -1.94126e-019 -3.10601e-018 -2.51263e-017
LeftArm  -17.8181 25.8074 -78.8272
LeftForeArm  30.3758 -13.8114 -2.45986
LeftHand  -0.464887 0.716536 11.5611
RightShoulder  -4.96962e-017 0 -2.36833e-017
RightArm  -32.8425 -15.3364 74.085
RightForeArm  59.0038 10.2562 1.54237
RightHand  -0.192548 -3.78226 -13.0495
LeftUpLeg  -19.4265 17.7194 5.89443
LeftLeg  53.5014 10.2805 11.923
LeftFoot  2.81984 -0.0189917 0.93318
LeftToes  -22.0484 1.31378e-006 1.14341e-007
498
root  -65.4846 34.3842 -56.9264 -146.421 78.8949 -153.141
RightUpLeg  -14.0702 -8.80148 9.11948
RightLeg  16.5894 -4.28189 -0.98015
RightFoot  -2.0217 -0.00522657 0.28758
RightToes  -9.94966 -0.0327884 -0.0915268
Spine  -0.21099 0.0293655 1.56089
Spine1  -0.492424 0.182279 3.56495
HEad  -62.7835 -19.9846 12.5421
LeftShoulder1  -1.94126e-019 -3.10601e-018 -2.51263e-017
LeftArm  -17.5487 25.3103 -79.4757
LeftForeArm  31.0438 -15.0569 -2.69071
LeftHand  -0.47528 0.707527 11.7982
RightShoulder  -4.96962e-017 0 -2.36833e-017
RightArm  -32.7173 -14.7628 73.306
RightForeArm  58.1274 10.1319 1.54094
RightHand  -0.194447 -3.74241 -12.8699
LeftUpLeg  -20.8904 13.6592 5.47879
LeftLeg  52.5426 11.1511 12.4737
LeftFoot  1.2342 -0.00378204 0.512719
LeftToes  -24.2998 1.31378e-006 1.14341e-007
499
root  -65.2741 34.4867 -57.1002 -123.846 84.0659 -131.036
RightUpLeg  -13.5109 -5.47288 8.11625
RightLeg  15.1101 -1.87866 -0.379547
RightFoot  -0.90476 -0.00346952 0.15293
RightToes  -11.3376 -0.038608 -0.103795
Spine  -0.202184 0.355177 1.42677
Spine1  -0.463485 0.85371 3.30169
HEad  -62.2575 -18.2996 11.6766
LeftShoulder1  -1.94126e-019 -3.10601e-018 -2.51263e-017
LeftArm  -16.6909 25.1073 -79.8237
LeftForeArm  30.1256 -16.7741 -2.97692
LeftHand  -0.450134 0.713167 11.1855
RightShoulder  -4.96962e-017 0 -2.36833e-017
RightArm  -30.275 -14.5499 72.8844
RightForeArm  56.0069 10.7286 1.54745
RightHand  -0.183872 -3.78618 -12.4264
LeftUpLeg  -21.281 9.28262 5.24569
LeftLeg  48.5653 14.4689 13.9655
LeftFoot  -1.05188 -0.00370765 -0.242348
LeftToes  -21.445 1.31378e-006 1.14341e-007
500
root  -65.0999 34.5634 -57.2934 -55.9936 85.659 -63.8763
RightUpLeg  -13.7521 -1.98918 6.99457
RightLeg  14.433 0.124382 0.0237673
RightFoot  -0.103317 -0.000720929 0.116984
RightToes  -13.1345 -0.0465814 -0.119463
Spine  -0.267964 0.614216 1.22191
Spine1  -0.590186 1.40104 2.89259
HEad  -61.7134 -16.7395 11.1188
LeftShoulder1  -1.94126e-019 -3.10601e-018 -2.51263e-017
LeftArm  -15.0535 24.8778 -79.9929
LeftForeArm  29.1342 -18.4166 -3.20114
LeftHand  -0.455837 0.815796 11.5723
RightShoulder  -4.96962e-017 0 -2.36833e-017
RightArm  -28.0923 -14.226 72.9294
RightForeArm  54.5067 11.3878 1.53335
RightHand  -0.197233 -3.60367 -12.0532
LeftUpLeg  -21.1458 3.69645 5.71345
LeftLeg  41.733 15.887 12.0871
LeftFoot  -3.84386 -0.0475025 -1.25395
LeftToes  -18.8372 1.31378e-006 1.14341e-007
501
root  -64.8997 34.5865 -57.5089 -16.8218 81.9059 -25.29
RightUpLeg  -14.5706 1.50564 5.88791
RightLeg  15.004 1.69847 0.339965
RightFoot  0.0727284 -6.4835e-005 0.118918
RightToes  -14.9832 -0.0552925 -0.135313
Spine  -0.354712 0.69544 1.04901
Spine1  -0.761431 1.59019 2.55447
HEad  -61.196 -15.1819 10.745
LeftShoulder1  -1.94126e-019 -3.10601e-018 -2.51263e-017
LeftArm  -13.5822 24.7496 -80.0262
LeftForeArm  27.0999 -20.4507 -3.47464
LeftHand  -0.441034 0.824104 11.2147
RightShoulder  -4.96962e-017 0 -2.36833e-017
RightArm  -26.6672 -13.7563 73.2676
RightForeArm  53.8945 11.8951 1.50739
RightHand  -0.225244 -3.28196 -11.8139
LeftUpLeg  -20.4801 -4.09241 6.98851
LeftLeg  32.9969 15.1611 8.34967
LeftFoot  -4.76458 -0.0628573 -1.34924
LeftToes  -19.1728 1.31378e-006 1.14341e-007
502
root  -64.6619 34.5818 -57.8152 -2.89697 77.6662 -11.3638
RightUpLeg  -15.9363 3.98832 4.0414
RightLeg  17.5669 3.69255 0.911218
RightFoot  -0.581831 -0.00255749 0.0769033
RightToes  -16.7585 -0.0641352 -0.150262
Spine  -0.30521 0.561317 0.645824
Spine1  -0.679598 1.33949 1.75508
HEad  -60.42 -13.8125 10.536
LeftShoulder1  -1.94126e-019 -3.10601e-018 -2.51263e-017
LeftArm  -11.9577 24.1685 -79.7686
LeftForeArm  26.0322 -21.6605 -3.6157
LeftHand  -0.480879 0.521632 11.4981
RightShoulder  -4.96962e-017 0 -2.36833e-017
RightArm  -25.7187 -13.2495 74.1396
RightForeArm  53.2415 12.419 1.4711
RightHand  -0.236319 -3.13619 -11.644
LeftUpLeg  -19.7159 -12.5423 7.36259
LeftLeg  26.389 12.6778 5.24338
LeftFoot  0.687204 -0.000879365 0.308223
LeftToes  -22.5 1.31378e-006 1.14341e-007
503
root  -64.3928 34.5047 -58.0852 1.37047 73.4319 -6.8024
RightUpLeg  -17.4065 5.6144 2.89571
RightLeg  20.9328 6.02396 1.86438
RightFoot  -1.64009 -0.00850952 -0.0696431
RightToes  -17.2918 -0.0668815 -0.154698
Spine  -0.175432 0.36609 0.415254
Spine1  -0.423899 0.92838 1.33021
HEad  -59.349 -12.6576 10.258
LeftShoulder1  -1.94126e-019 -3.10601e-018 -2.51263e-017
LeftArm  -10.4992 23.1882 -79.6178
LeftForeArm  25.7805 -22.9534 -3.83407
LeftHand  -0.492765 0.163263 11.0052
RightShoulder  -4.96962e-017 0 -2.36833e-017
RightArm  -24.9656 -12.911 75.0908
RightForeArm  52.2912 13.0721 1.41758
RightHand  -0.229347 -3.21059 -11.6555
LeftUpLeg  -19.4109 -10.9529 6.13454
LeftLeg  28.4333 13.3468 6.07085
LeftFoot  -0.197008 -0.000114045 0.0950805
LeftToes  -22.677 1.31378e-006 1.14341e-007
